<svg width="132" height="142" viewBox="0 0 132 142" fill="none" xmlns="http://www.w3.org/2000/svg">
<rect width="132" height="142" fill="#F4B5B5"/>
<path fill-rule="evenodd" clip-rule="evenodd" d="M105.354 72.0813C108.183 62.6026 107.58 52.4301 103.651 43.352C99.7222 34.2738 92.7192 26.8711 83.8729 22.445C75.0266 18.0189 64.9032 16.8527 55.2822 19.1513C45.6612 21.45 37.1584 27.0665 31.2684 35.0135C25.3783 42.9605 22.478 52.7294 23.0773 62.603C23.6766 72.4766 27.737 81.823 34.545 88.9993C38.051 92.695 42.1701 95.6934 46.6834 97.8852L39.6982 124.741H48.4425L54.6289 100.797C56.4845 101.272 58.3792 101.622 60.301 101.841C65.5125 102.434 70.7465 102.042 75.7431 100.729L81.9471 124.741H90.6914L83.6746 97.764C85.2581 96.9821 86.7977 96.0977 88.2834 95.1134L88.2781 95.1052C89.6521 94.2708 91.1812 93.7085 92.7804 93.4519C94.5958 93.1606 95.5433 93.0999 97.7683 93.4093C99.5928 93.663 101.479 94.0976 103.751 95.3233C104.408 95.6913 105.005 95.9838 105.541 96.2465L105.541 96.2466C107.016 96.9693 108.032 97.467 108.574 98.691C107.653 96.6126 106.279 94.7587 104.549 93.2626C102.82 91.7665 100.778 90.6655 98.5716 90.0387C96.3648 89.4119 94.0477 89.275 91.787 89.6377C89.7511 89.9644 87.8065 90.689 86.0661 91.7667L86.0654 91.7656L86.0286 91.79C85.8629 91.8932 85.6991 91.9997 85.5372 92.1093C84.5935 92.7124 83.6267 93.2715 82.6399 93.7859L74.3073 61.7496H56.0823L47.7166 93.9131C43.9163 91.9669 40.4419 89.3803 37.4584 86.2354C31.3006 79.7444 27.6278 71.2905 27.0858 62.3597C26.5437 53.4289 29.1671 44.5929 34.4947 37.4047C39.8223 30.2166 47.5132 25.1365 56.2155 23.0573C64.9177 20.9781 74.0744 22.0329 82.076 26.0364C90.0775 30.0399 96.4118 36.7357 99.9654 44.947C103.519 53.1582 104.064 62.3593 101.506 70.9329L105.354 72.0813ZM55.6335 96.9092C57.309 97.3376 59.0198 97.6531 60.755 97.8506C65.4744 98.3875 70.2142 98.0322 74.7385 96.8412L67.588 69.1657H62.8016L55.6335 96.9092ZM94.2607 52.3105C94.9626 56.9877 94.5255 61.7653 92.9866 66.2375L89.1075 64.9026C90.4316 61.0546 90.8077 56.9438 90.2037 52.9194C89.5997 48.8949 88.0336 45.0757 85.6382 41.7858C83.2429 38.496 80.089 35.8327 76.4445 34.0222C72.7999 32.2116 68.7723 31.3072 64.7036 31.3858C60.6348 31.4644 56.6451 32.5236 53.0732 34.4735C49.5013 36.4234 46.4526 39.2065 44.186 42.5863C41.9195 45.9662 40.502 49.8431 40.0538 53.8879C39.6057 57.9326 40.1402 62.0258 41.6119 65.8198L37.7872 67.3035C36.0768 62.894 35.4556 58.1369 35.9764 53.4361C36.4972 48.7353 38.1446 44.2296 40.7788 40.3015C43.413 36.3734 46.9562 33.1389 51.1075 30.8727C55.2588 28.6065 59.8957 27.3755 64.6244 27.2842C69.3531 27.1929 74.034 28.2439 78.2697 30.3482C82.5054 32.4524 86.1708 35.5476 88.9547 39.3711C91.7386 43.1946 93.5588 47.6333 94.2607 52.3105ZM80.3604 60.3917C81.4098 57.8747 81.8222 55.1379 81.5612 52.4235C81.3002 49.7091 80.3738 47.1009 78.864 44.8301C77.3543 42.5593 75.3078 40.6958 72.9059 39.4048C70.5039 38.1138 67.8206 37.4351 65.0937 37.4288C62.3668 37.4225 59.6805 38.0888 57.2726 39.3687C54.8647 40.6486 52.8096 42.5026 51.2894 44.7664C49.7692 47.0302 48.8307 49.6341 48.5571 52.3472C48.2836 55.0604 48.6834 57.7991 49.7211 60.3209L53.3965 58.8084C52.6075 56.8911 52.3035 54.8088 52.5115 52.7459C52.7195 50.6831 53.433 48.7033 54.5889 46.9821C55.7447 45.2609 57.3072 43.8512 59.138 42.8781C60.9687 41.905 63.0112 41.3984 65.0845 41.4032C67.1579 41.408 69.198 41.924 71.0242 42.9056C72.8505 43.8872 74.4064 45.304 75.5543 47.0305C76.7022 48.7571 77.4066 50.7401 77.605 52.8039C77.8035 54.8677 77.4899 56.9486 76.6921 58.8622L80.3604 60.3917ZM59.4436 52.2131C59.4436 55.3881 62.0174 57.962 65.1925 57.962C68.3675 57.962 70.9414 55.3881 70.9414 52.2131C70.9414 49.0381 68.3675 46.4642 65.1925 46.4642C62.0174 46.4642 59.4436 49.0381 59.4436 52.2131Z" fill="white"/>
</svg>
