<svg width="86" height="107" viewBox="0 0 86 107" fill="none" xmlns="http://www.w3.org/2000/svg">
<path fill-rule="evenodd" clip-rule="evenodd" d="M82.3541 54.0813C85.1827 44.6026 84.5797 34.4301 80.6509 25.352C76.7222 16.2738 69.7192 8.87111 60.8729 4.44499C52.0266 0.0188671 41.9032 -1.14735 32.2822 1.15134C22.6612 3.45003 14.1584 9.0665 8.26836 17.0135C2.37831 24.9605 -0.521984 34.7294 0.0772886 44.603C0.676561 54.4766 4.73704 63.823 11.545 70.9993C15.051 74.695 19.1701 77.6934 23.6834 79.8852L16.6982 106.741H25.4425L31.6289 82.7974C33.4845 83.2723 35.3792 83.622 37.301 83.8407C42.5125 84.4336 47.7465 84.0424 52.7431 82.7295L58.9471 106.741H67.6914L60.6746 79.764C62.2581 78.9821 63.7977 78.0977 65.2834 77.1134L65.2781 77.1052C66.6521 76.2708 68.1812 75.7085 69.7804 75.4519C71.5958 75.1606 72.5433 75.0999 74.7683 75.4093C76.5928 75.663 78.479 76.0976 80.7511 77.3233C81.408 77.6913 82.0049 77.9838 82.5411 78.2465L82.5412 78.2466C84.016 78.9693 85.0317 79.467 85.5737 80.691C84.6533 78.6126 83.2789 76.7587 81.5494 75.2626C79.8199 73.7665 77.7784 72.6655 75.5716 72.0387C73.3648 71.4119 71.0477 71.275 68.787 71.6377C66.7511 71.9644 64.8065 72.689 63.0661 73.7667L63.0654 73.7656L63.0286 73.79C62.8629 73.8932 62.6991 73.9997 62.5372 74.1093C61.5935 74.7124 60.6267 75.2715 59.6399 75.7859L51.3073 43.7496H33.0823L24.7166 75.9131C20.9163 73.9669 17.4419 71.3803 14.4584 68.2354C8.30057 61.7444 4.62783 53.2905 4.08578 44.3597C3.54373 35.4289 6.16708 26.5929 11.4947 19.4047C16.8223 12.2166 24.5132 7.13646 33.2155 5.05727C41.9177 2.97809 51.0744 4.03294 59.076 8.03641C67.0775 12.0399 73.4118 18.7357 76.9654 26.947C80.519 35.1582 81.0645 44.3593 78.5059 52.9329L82.3541 54.0813ZM32.6335 78.9092C34.309 79.3376 36.0198 79.6531 37.755 79.8506C42.4744 80.3875 47.2142 80.0322 51.7385 78.8412L44.588 51.1657H39.8016L32.6335 78.9092ZM71.2607 34.3105C71.9626 38.9877 71.5255 43.7653 69.9866 48.2375L66.1075 46.9026C67.4316 43.0546 67.8077 38.9438 67.2037 34.9194C66.5997 30.8949 65.0336 27.0757 62.6382 23.7858C60.2429 20.496 57.089 17.8327 53.4445 16.0222C49.7999 14.2116 45.7723 13.3072 41.7036 13.3858C37.6348 13.4644 33.6451 14.5236 30.0732 16.4735C26.5013 18.4234 23.4526 21.2065 21.186 24.5863C18.9195 27.9662 17.502 31.8431 17.0538 35.8879C16.6057 39.9326 17.1402 44.0258 18.6119 47.8198L14.7872 49.3035C13.0768 44.894 12.4556 40.1369 12.9764 35.4361C13.4972 30.7353 15.1446 26.2296 17.7788 22.3015C20.413 18.3734 23.9562 15.1389 28.1075 12.8727C32.2588 10.6065 36.8957 9.37549 41.6244 9.28417C46.3531 9.19285 51.034 10.2439 55.2697 12.3482C59.5054 14.4524 63.1708 17.5476 65.9547 21.3711C68.7386 25.1946 70.5588 29.6333 71.2607 34.3105ZM57.3604 42.3917C58.4098 39.8747 58.8222 37.1379 58.5612 34.4235C58.3002 31.7091 57.3738 29.1009 55.864 26.8301C54.3543 24.5593 52.3078 22.6958 49.9059 21.4048C47.5039 20.1138 44.8206 19.4351 42.0937 19.4288C39.3668 19.4225 36.6805 20.0888 34.2726 21.3687C31.8647 22.6486 29.8096 24.5026 28.2894 26.7664C26.7692 29.0302 25.8307 31.6341 25.5571 34.3472C25.2836 37.0604 25.6834 39.7991 26.7211 42.3209L30.3965 40.8084C29.6075 38.8911 29.3035 36.8088 29.5115 34.7459C29.7195 32.6831 30.433 30.7033 31.5889 28.9821C32.7447 27.2609 34.3072 25.8512 36.138 24.8781C37.9687 23.905 40.0112 23.3984 42.0845 23.4032C44.1579 23.408 46.198 23.924 48.0242 24.9056C49.8505 25.8872 51.4064 27.304 52.5543 29.0305C53.7022 30.7571 54.4066 32.7401 54.605 34.8039C54.8035 36.8677 54.4899 38.9486 53.6921 40.8622L57.3604 42.3917ZM36.4436 34.2131C36.4436 37.3881 39.0174 39.962 42.1925 39.962C45.3675 39.962 47.9414 37.3881 47.9414 34.2131C47.9414 31.0381 45.3675 28.4642 42.1925 28.4642C39.0174 28.4642 36.4436 31.0381 36.4436 34.2131Z" fill="white"/>
</svg>
