<svg width="551" height="321" viewBox="0 0 551 321" fill="none" xmlns="http://www.w3.org/2000/svg">
<g clip-path="url(#clip0)">
<rect width="551" height="321" fill="white"/>
<rect x="85.5205" y="122.375" width="146" height="141" rx="33" fill="#FCE3E3"/>
<path d="M303.859 199.975C304.532 199.975 305.072 200.145 305.479 200.485C305.892 200.819 306.176 201.255 306.329 201.795L305.479 201.965C305.346 201.572 305.136 201.262 304.849 201.035C304.569 200.802 304.239 200.685 303.859 200.685C303.332 200.685 302.896 200.905 302.549 201.345C302.202 201.785 302.029 202.399 302.029 203.185C302.029 203.965 302.182 204.592 302.489 205.065C302.802 205.539 303.259 205.775 303.859 205.775C304.359 205.775 304.752 205.645 305.039 205.385C305.332 205.119 305.479 204.769 305.479 204.335H306.329C306.329 204.995 306.102 205.519 305.649 205.905C305.202 206.292 304.586 206.485 303.799 206.485C303.019 206.485 302.386 206.185 301.899 205.585C301.419 204.985 301.179 204.182 301.179 203.175C301.179 202.169 301.429 201.385 301.929 200.825C302.429 200.259 303.072 199.975 303.859 199.975ZM307.812 199.565H308.602V206.375H307.812V199.565ZM310.664 201.585H311.454V206.375H310.664V201.585ZM311.054 200.465C310.894 200.465 310.768 200.422 310.674 200.335C310.588 200.242 310.544 200.122 310.544 199.975C310.544 199.822 310.588 199.702 310.674 199.615C310.768 199.522 310.894 199.475 311.054 199.475C311.214 199.475 311.341 199.522 311.434 199.615C311.534 199.702 311.584 199.822 311.584 199.975C311.584 200.122 311.534 200.242 311.434 200.335C311.341 200.422 311.214 200.465 311.054 200.465ZM314.343 202.325C314.656 201.759 315.123 201.475 315.743 201.475C316.369 201.475 316.889 201.705 317.303 202.165C317.723 202.625 317.933 203.232 317.933 203.985C317.933 204.739 317.723 205.345 317.303 205.805C316.883 206.259 316.366 206.485 315.753 206.485C315.139 206.485 314.686 206.255 314.393 205.795V208.725H313.603V201.595H314.253L314.343 202.325ZM315.713 205.785C316.086 205.785 316.413 205.625 316.693 205.305C316.979 204.985 317.123 204.549 317.123 203.995C317.123 203.435 316.986 202.992 316.713 202.665C316.446 202.339 316.119 202.175 315.733 202.175C315.346 202.175 315.029 202.299 314.783 202.545C314.536 202.785 314.406 203.112 314.393 203.525V204.435C314.393 204.855 314.519 205.185 314.773 205.425C315.026 205.665 315.339 205.785 315.713 205.785Z" fill="black"/>
<rect x="114.521" y="143.375" width="87" height="77" rx="11" fill="#F0C5C5"/>
<g filter="url(#filter0_dd)">
<rect x="139.521" y="143.375" width="38" height="77" rx="7" fill="#E39898"/>
</g>
<rect x="151.521" y="152.375" width="15" height="41" rx="4" fill="#F0C5C5"/>
<rect x="156.521" y="100.375" width="4" height="22" fill="#C4C4C4"/>
<circle cx="159.021" cy="70.8752" r="28" stroke="#C4C4C4" stroke-width="3"/>
<line x1="286.908" y1="202.888" x2="164.871" y2="202.888" stroke="black"/>
<circle cx="288.872" cy="203.073" r="2.99431" transform="rotate(-180 288.872 203.073)" fill="black"/>
<circle cx="330.536" cy="203.073" r="2.99431" transform="rotate(-180 330.536 203.073)" fill="black"/>
<rect width="51" height="141" rx="17" transform="matrix(-1 0 0 1 438.678 122.375)" fill="#FCE3E3"/>
<rect width="5" height="77" rx="2.5" transform="matrix(-1 0 0 1 387.678 143.375)" fill="#E39898"/>
<rect width="4" height="22" transform="matrix(-1 0 0 1 414.678 100.375)" fill="#C4C4C4"/>
<circle r="28" transform="matrix(-1 0 0 1 412.178 70.8752)" stroke="#C4C4C4" stroke-width="3"/>
<path d="M385.878 203.073L332.689 203.073" stroke="black"/>
</g>
<defs>
<filter id="filter0_dd" x="129.521" y="135.375" width="56" height="95" filterUnits="userSpaceOnUse" color-interpolation-filters="sRGB">
<feFlood flood-opacity="0" result="BackgroundImageFix"/>
<feColorMatrix in="SourceAlpha" type="matrix" values="0 0 0 0 0 0 0 0 0 0 0 0 0 0 0 0 0 0 127 0"/>
<feOffset dx="-1" dy="1"/>
<feGaussianBlur stdDeviation="4.5"/>
<feColorMatrix type="matrix" values="0 0 0 0 0 0 0 0 0 0 0 0 0 0 0 0 0 0 0.25 0"/>
<feBlend mode="normal" in2="BackgroundImageFix" result="effect1_dropShadow"/>
<feColorMatrix in="SourceAlpha" type="matrix" values="0 0 0 0 0 0 0 0 0 0 0 0 0 0 0 0 0 0 127 0"/>
<feOffset dx="1" dy="1"/>
<feGaussianBlur stdDeviation="2"/>
<feColorMatrix type="matrix" values="0 0 0 0 0 0 0 0 0 0 0 0 0 0 0 0 0 0 0.09 0"/>
<feBlend mode="normal" in2="effect1_dropShadow" result="effect2_dropShadow"/>
<feBlend mode="normal" in="SourceGraphic" in2="effect2_dropShadow" result="shape"/>
</filter>
<clipPath id="clip0">
<rect width="551" height="321" fill="white"/>
</clipPath>
</defs>
</svg>
