<svg width="551" height="332" viewBox="0 0 551 332" fill="none" xmlns="http://www.w3.org/2000/svg">
<rect width="551" height="332" fill="white"/>
<rect x="47.3848" y="114.228" width="146" height="141" rx="33" fill="#FCE3E3"/>
<path d="M111.325 284.629V286.629H113.745V287.829H111.325V290.229H109.945V283.429H114.285V284.629H111.325ZM114.972 285.229H116.302V285.759C116.875 285.425 117.408 285.209 117.902 285.109V286.459C117.402 286.559 116.938 286.675 116.512 286.809L116.312 286.879V290.229H114.972V285.229ZM120.732 290.349C119.979 290.349 119.406 290.122 119.012 289.669C118.626 289.209 118.432 288.559 118.432 287.719C118.432 286.885 118.626 286.242 119.012 285.789C119.406 285.335 119.979 285.109 120.732 285.109C121.486 285.109 122.056 285.335 122.442 285.789C122.836 286.242 123.032 286.885 123.032 287.719C123.032 288.559 122.836 289.209 122.442 289.669C122.056 290.122 121.486 290.349 120.732 290.349ZM120.732 289.209C121.052 289.209 121.289 289.092 121.442 288.859C121.596 288.625 121.672 288.245 121.672 287.719C121.672 287.192 121.596 286.815 121.442 286.589C121.289 286.362 121.052 286.249 120.732 286.249C120.412 286.249 120.176 286.362 120.022 286.589C119.869 286.815 119.792 287.192 119.792 287.719C119.792 288.245 119.869 288.625 120.022 288.859C120.176 289.092 120.412 289.209 120.732 289.209ZM124.015 285.229H125.345V285.509C125.598 285.362 125.821 285.259 126.015 285.199C126.215 285.139 126.428 285.109 126.655 285.109C127.268 285.109 127.705 285.305 127.965 285.699C128.225 286.092 128.355 286.699 128.355 287.519V290.229H127.015V287.559C127.015 287.099 126.958 286.775 126.845 286.589C126.738 286.402 126.531 286.309 126.225 286.309C126.005 286.309 125.755 286.355 125.475 286.449L125.355 286.489V290.229H124.015V285.229ZM131.242 290.349C130.855 290.349 130.555 290.289 130.342 290.169C130.129 290.049 129.975 289.852 129.882 289.579C129.789 289.305 129.742 288.929 129.742 288.449V286.369H129.152V285.229H129.742V283.839H131.082V285.229H132.312V286.369H131.082V288.419C131.082 288.679 131.105 288.869 131.152 288.989C131.199 289.102 131.315 289.155 131.502 289.149L132.262 289.129L132.322 290.199C132.055 290.259 131.845 290.299 131.692 290.319C131.545 290.339 131.395 290.349 131.242 290.349Z" fill="black"/>
<path d="M236.881 231.453H239.411C240.165 231.453 240.721 231.636 241.081 232.003C241.441 232.363 241.621 232.923 241.621 233.683C241.621 235.256 240.885 236.043 239.411 236.043H237.651V238.373H236.881V231.453ZM239.401 235.363C240.355 235.363 240.831 234.803 240.831 233.683C240.831 233.143 240.718 232.749 240.491 232.503C240.265 232.256 239.901 232.133 239.401 232.133H237.651V235.363H239.401ZM244.56 238.473C244.027 238.473 243.603 238.386 243.29 238.213C242.977 238.033 242.753 237.756 242.62 237.383C242.487 237.009 242.42 236.516 242.42 235.903C242.42 235.269 242.49 234.763 242.63 234.383C242.77 233.996 242.997 233.716 243.31 233.543C243.623 233.363 244.04 233.273 244.56 233.273C245.087 233.273 245.503 233.363 245.81 233.543C246.123 233.723 246.35 234.003 246.49 234.383C246.63 234.763 246.7 235.269 246.7 235.903C246.7 236.516 246.633 237.009 246.5 237.383C246.367 237.756 246.143 238.033 245.83 238.213C245.523 238.386 245.1 238.473 244.56 238.473ZM244.57 237.823C244.937 237.823 245.217 237.763 245.41 237.643C245.603 237.516 245.737 237.319 245.81 237.053C245.89 236.779 245.93 236.396 245.93 235.903C245.93 235.383 245.89 234.983 245.81 234.703C245.73 234.423 245.593 234.223 245.4 234.103C245.207 233.983 244.93 233.923 244.57 233.923C244.21 233.923 243.93 233.983 243.73 234.103C243.537 234.223 243.397 234.423 243.31 234.703C243.23 234.983 243.19 235.383 243.19 235.903C243.19 236.389 243.227 236.769 243.3 237.043C243.38 237.316 243.517 237.516 243.71 237.643C243.91 237.763 244.197 237.823 244.57 237.823ZM247.464 233.373H248.214L249.224 237.723H249.384L250.574 233.473H251.354L252.544 237.723H252.714L253.714 233.373H254.464L253.274 238.373H252.024L250.964 234.463L249.904 238.373H248.654L247.464 233.373ZM257.313 238.473C256.553 238.473 256.013 238.276 255.693 237.883C255.379 237.483 255.223 236.856 255.223 236.003C255.223 235.076 255.393 234.389 255.733 233.943C256.073 233.496 256.606 233.273 257.333 233.273C257.999 233.273 258.496 233.466 258.823 233.853C259.156 234.233 259.323 234.819 259.323 235.613L259.283 236.183H255.983C255.983 236.596 256.026 236.919 256.113 237.153C256.206 237.386 256.359 237.556 256.573 237.663C256.793 237.763 257.096 237.813 257.483 237.813C257.676 237.813 257.899 237.809 258.153 237.803C258.406 237.789 258.636 237.773 258.843 237.753L259.133 237.723L259.153 238.313C258.413 238.419 257.799 238.473 257.313 238.473ZM258.573 235.583C258.573 234.976 258.476 234.546 258.283 234.293C258.089 234.033 257.773 233.903 257.333 233.903C256.873 233.903 256.533 234.039 256.313 234.313C256.093 234.579 255.979 235.003 255.973 235.583H258.573ZM260.491 233.373H261.231V234.053C261.805 233.659 262.415 233.396 263.061 233.263V234.023C262.801 234.076 262.518 234.159 262.211 234.273C261.911 234.379 261.671 234.479 261.491 234.573L261.241 234.703V238.373H260.491V233.373ZM268.736 238.473C268.049 238.473 267.506 238.349 267.106 238.103C266.706 237.856 266.419 237.479 266.246 236.973C266.079 236.459 265.996 235.783 265.996 234.943C265.996 234.109 266.082 233.433 266.256 232.913C266.429 232.386 266.716 231.996 267.116 231.743C267.516 231.483 268.052 231.353 268.726 231.353C269.399 231.353 269.936 231.483 270.336 231.743C270.736 231.996 271.022 232.386 271.196 232.913C271.376 233.433 271.466 234.116 271.466 234.963C271.466 235.809 271.379 236.486 271.206 236.993C271.039 237.499 270.756 237.873 270.356 238.113C269.962 238.353 269.422 238.473 268.736 238.473ZM268.736 237.793C269.242 237.793 269.632 237.699 269.906 237.513C270.186 237.326 270.382 237.033 270.496 236.633C270.609 236.226 270.666 235.669 270.666 234.963C270.666 234.256 270.606 233.693 270.486 233.273C270.372 232.853 270.176 232.543 269.896 232.343C269.616 232.136 269.226 232.033 268.726 232.033C268.226 232.033 267.836 232.133 267.556 232.333C267.276 232.533 267.076 232.843 266.956 233.263C266.842 233.683 266.786 234.243 266.786 234.943C266.786 235.643 266.842 236.199 266.956 236.613C267.069 237.019 267.266 237.319 267.546 237.513C267.832 237.699 268.229 237.793 268.736 237.793ZM277.937 231.453V238.373H276.527L273.837 232.133H273.647V238.373H272.877V231.453H274.317L276.977 237.693H277.177V231.453H277.937ZM283.422 236.203H281.532V235.523H283.422V233.573H284.122V235.523H286.032V236.203H284.122V238.173H283.422V236.203ZM289.625 231.453H290.395V238.373H289.625V231.453ZM291.956 233.373H292.696V233.723C292.996 233.556 293.27 233.439 293.516 233.373C293.77 233.306 294.033 233.273 294.306 233.273C294.733 233.273 295.063 233.353 295.296 233.513C295.53 233.673 295.693 233.929 295.786 234.283C295.886 234.629 295.936 235.113 295.936 235.733V238.373H295.196V235.753C295.196 235.279 295.166 234.916 295.106 234.663C295.053 234.409 294.953 234.226 294.806 234.113C294.66 233.999 294.446 233.943 294.166 233.943C293.94 233.943 293.706 233.973 293.466 234.033C293.233 234.086 293.043 234.149 292.896 234.223L292.706 234.313V238.373H291.956V233.373ZM298.888 238.483C298.548 238.483 298.281 238.429 298.088 238.323C297.901 238.209 297.765 238.023 297.678 237.763C297.598 237.496 297.558 237.126 297.558 236.653V234.023H296.848V233.373H297.558V231.843H298.298V233.373H299.888V234.023H298.298V236.413C298.298 236.786 298.311 237.066 298.338 237.253C298.365 237.433 298.428 237.573 298.528 237.673C298.635 237.766 298.798 237.813 299.018 237.813L299.908 237.753L299.958 238.373C299.485 238.446 299.128 238.483 298.888 238.483ZM302.674 238.473C301.914 238.473 301.374 238.276 301.054 237.883C300.741 237.483 300.584 236.856 300.584 236.003C300.584 235.076 300.754 234.389 301.094 233.943C301.434 233.496 301.967 233.273 302.694 233.273C303.361 233.273 303.857 233.466 304.184 233.853C304.517 234.233 304.684 234.819 304.684 235.613L304.644 236.183H301.344C301.344 236.596 301.387 236.919 301.474 237.153C301.567 237.386 301.721 237.556 301.934 237.663C302.154 237.763 302.457 237.813 302.844 237.813C303.037 237.813 303.261 237.809 303.514 237.803C303.767 237.789 303.997 237.773 304.204 237.753L304.494 237.723L304.514 238.313C303.774 238.419 303.161 238.473 302.674 238.473ZM303.934 235.583C303.934 234.976 303.837 234.546 303.644 234.293C303.451 234.033 303.134 233.903 302.694 233.903C302.234 233.903 301.894 234.039 301.674 234.313C301.454 234.579 301.341 235.003 301.334 235.583H303.934ZM305.853 233.373H306.593V234.053C307.166 233.659 307.776 233.396 308.423 233.263V234.023C308.163 234.076 307.879 234.159 307.573 234.273C307.273 234.379 307.033 234.479 306.853 234.573L306.603 234.703V238.373H305.853V233.373ZM309.52 234.023H308.89V233.373H309.52V232.923C309.52 232.449 309.563 232.083 309.65 231.823C309.737 231.556 309.877 231.369 310.07 231.263C310.263 231.149 310.53 231.093 310.87 231.093L311.88 231.163L311.87 231.783C311.45 231.769 311.19 231.763 311.09 231.763C310.997 231.756 310.937 231.753 310.91 231.753C310.663 231.753 310.493 231.853 310.4 232.053C310.313 232.253 310.27 232.546 310.27 232.933V233.373H311.72V234.023H310.27V238.373H309.52V234.023ZM313.71 238.473C313.25 238.473 312.9 238.343 312.66 238.083C312.42 237.823 312.3 237.449 312.3 236.963C312.3 236.483 312.42 236.126 312.66 235.893C312.907 235.659 313.297 235.516 313.83 235.463L315.4 235.313V234.883C315.4 234.249 315.127 233.933 314.58 233.933C314.04 233.933 313.384 233.976 312.61 234.063L312.58 233.493C313.294 233.346 313.944 233.273 314.53 233.273C315.097 233.273 315.507 233.403 315.76 233.663C316.02 233.916 316.15 234.323 316.15 234.883V237.443C316.17 237.689 316.364 237.836 316.73 237.883L316.7 238.473C316.174 238.473 315.777 238.339 315.51 238.073C314.917 238.339 314.317 238.473 313.71 238.473ZM313.83 237.843C314.277 237.843 314.724 237.766 315.17 237.613L315.4 237.533V235.883L313.92 236.023C313.62 236.049 313.404 236.136 313.27 236.283C313.137 236.429 313.07 236.643 313.07 236.923C313.07 237.536 313.324 237.843 313.83 237.843ZM319.43 238.473C318.93 238.473 318.533 238.386 318.24 238.213C317.947 238.033 317.737 237.756 317.61 237.383C317.483 237.003 317.42 236.499 317.42 235.873C317.42 235.079 317.553 234.446 317.82 233.973C318.087 233.499 318.603 233.263 319.37 233.263C319.57 233.263 319.777 233.273 319.99 233.293C320.203 233.313 320.493 233.356 320.86 233.423L320.83 234.033C320.303 233.973 319.9 233.943 319.62 233.943C319.24 233.943 318.947 234.003 318.74 234.123C318.54 234.236 318.397 234.433 318.31 234.713C318.23 234.986 318.19 235.379 318.19 235.893C318.19 236.379 318.23 236.759 318.31 237.033C318.39 237.299 318.533 237.496 318.74 237.623C318.953 237.743 319.26 237.803 319.66 237.803L320.84 237.713L320.87 238.333C320.23 238.426 319.75 238.473 319.43 238.473ZM323.797 238.473C323.037 238.473 322.497 238.276 322.177 237.883C321.864 237.483 321.707 236.856 321.707 236.003C321.707 235.076 321.877 234.389 322.217 233.943C322.557 233.496 323.09 233.273 323.817 233.273C324.484 233.273 324.98 233.466 325.307 233.853C325.64 234.233 325.807 234.819 325.807 235.613L325.767 236.183H322.467C322.467 236.596 322.51 236.919 322.597 237.153C322.69 237.386 322.844 237.556 323.057 237.663C323.277 237.763 323.58 237.813 323.967 237.813C324.16 237.813 324.384 237.809 324.637 237.803C324.89 237.789 325.12 237.773 325.327 237.753L325.617 237.723L325.637 238.313C324.897 238.419 324.284 238.473 323.797 238.473ZM325.057 235.583C325.057 234.976 324.96 234.546 324.767 234.293C324.574 234.033 324.257 233.903 323.817 233.903C323.357 233.903 323.017 234.039 322.797 234.313C322.577 234.579 322.464 235.003 322.457 235.583H325.057ZM329.303 231.453H331.833C332.586 231.453 333.143 231.636 333.503 232.003C333.863 232.363 334.043 232.923 334.043 233.683C334.043 235.256 333.306 236.043 331.833 236.043H330.073V238.373H329.303V231.453ZM331.823 235.363C332.776 235.363 333.253 234.803 333.253 233.683C333.253 233.143 333.14 232.749 332.913 232.503C332.686 232.256 332.323 232.133 331.823 232.133H330.073V235.363H331.823ZM335.101 233.373H335.841V234.053C336.414 233.659 337.024 233.396 337.671 233.263V234.023C337.411 234.076 337.128 234.159 336.821 234.273C336.521 234.379 336.281 234.479 336.101 234.573L335.851 234.703V238.373H335.101V233.373ZM340.38 238.473C339.847 238.473 339.424 238.386 339.11 238.213C338.797 238.033 338.574 237.756 338.44 237.383C338.307 237.009 338.24 236.516 338.24 235.903C338.24 235.269 338.31 234.763 338.45 234.383C338.59 233.996 338.817 233.716 339.13 233.543C339.444 233.363 339.86 233.273 340.38 233.273C340.907 233.273 341.324 233.363 341.63 233.543C341.944 233.723 342.17 234.003 342.31 234.383C342.45 234.763 342.52 235.269 342.52 235.903C342.52 236.516 342.454 237.009 342.32 237.383C342.187 237.756 341.964 238.033 341.65 238.213C341.344 238.386 340.92 238.473 340.38 238.473ZM340.39 237.823C340.757 237.823 341.037 237.763 341.23 237.643C341.424 237.516 341.557 237.319 341.63 237.053C341.71 236.779 341.75 236.396 341.75 235.903C341.75 235.383 341.71 234.983 341.63 234.703C341.55 234.423 341.414 234.223 341.22 234.103C341.027 233.983 340.75 233.923 340.39 233.923C340.03 233.923 339.75 233.983 339.55 234.103C339.357 234.223 339.217 234.423 339.13 234.703C339.05 234.983 339.01 235.383 339.01 235.903C339.01 236.389 339.047 236.769 339.12 237.043C339.2 237.316 339.337 237.516 339.53 237.643C339.73 237.763 340.017 237.823 340.39 237.823ZM342.533 240.023C342.893 239.816 343.157 239.636 343.323 239.483C343.49 239.336 343.603 239.173 343.663 238.993C343.723 238.813 343.753 238.563 343.753 238.243V233.373H344.493V238.253C344.493 238.673 344.447 239.009 344.353 239.263C344.26 239.523 344.097 239.753 343.863 239.953C343.637 240.153 343.293 240.369 342.833 240.603L342.533 240.023ZM343.753 231.373H344.493V232.243H343.753V231.373ZM347.742 238.473C346.982 238.473 346.442 238.276 346.122 237.883C345.809 237.483 345.652 236.856 345.652 236.003C345.652 235.076 345.822 234.389 346.162 233.943C346.502 233.496 347.036 233.273 347.762 233.273C348.429 233.273 348.926 233.466 349.252 233.853C349.586 234.233 349.752 234.819 349.752 235.613L349.712 236.183H346.412C346.412 236.596 346.456 236.919 346.542 237.153C346.636 237.386 346.789 237.556 347.002 237.663C347.222 237.763 347.526 237.813 347.912 237.813C348.106 237.813 348.329 237.809 348.582 237.803C348.836 237.789 349.066 237.773 349.272 237.753L349.562 237.723L349.582 238.313C348.842 238.419 348.229 238.473 347.742 238.473ZM349.002 235.583C349.002 234.976 348.906 234.546 348.712 234.293C348.519 234.033 348.202 233.903 347.762 233.903C347.302 233.903 346.962 234.039 346.742 234.313C346.522 234.579 346.409 235.003 346.402 235.583H349.002ZM352.721 238.473C352.221 238.473 351.825 238.386 351.531 238.213C351.238 238.033 351.028 237.756 350.901 237.383C350.775 237.003 350.711 236.499 350.711 235.873C350.711 235.079 350.845 234.446 351.111 233.973C351.378 233.499 351.895 233.263 352.661 233.263C352.861 233.263 353.068 233.273 353.281 233.293C353.495 233.313 353.785 233.356 354.151 233.423L354.121 234.033C353.595 233.973 353.191 233.943 352.911 233.943C352.531 233.943 352.238 234.003 352.031 234.123C351.831 234.236 351.688 234.433 351.601 234.713C351.521 234.986 351.481 235.379 351.481 235.893C351.481 236.379 351.521 236.759 351.601 237.033C351.681 237.299 351.825 237.496 352.031 237.623C352.245 237.743 352.551 237.803 352.951 237.803L354.131 237.713L354.161 238.333C353.521 238.426 353.041 238.473 352.721 238.473ZM356.867 238.483C356.527 238.483 356.26 238.429 356.067 238.323C355.88 238.209 355.743 238.023 355.657 237.763C355.577 237.496 355.537 237.126 355.537 236.653V234.023H354.827V233.373H355.537V231.843H356.277V233.373H357.867V234.023H356.277V236.413C356.277 236.786 356.29 237.066 356.317 237.253C356.343 237.433 356.407 237.573 356.507 237.673C356.613 237.766 356.777 237.813 356.997 237.813L357.887 237.753L357.937 238.373C357.463 238.446 357.107 238.483 356.867 238.483ZM358.783 233.373H359.523V238.373H358.783V233.373ZM358.783 231.373H359.523V232.243H358.783V231.373ZM362.822 238.473C362.288 238.473 361.865 238.386 361.552 238.213C361.238 238.033 361.015 237.756 360.882 237.383C360.748 237.009 360.682 236.516 360.682 235.903C360.682 235.269 360.752 234.763 360.892 234.383C361.032 233.996 361.258 233.716 361.572 233.543C361.885 233.363 362.302 233.273 362.822 233.273C363.348 233.273 363.765 233.363 364.072 233.543C364.385 233.723 364.612 234.003 364.752 234.383C364.892 234.763 364.962 235.269 364.962 235.903C364.962 236.516 364.895 237.009 364.762 237.383C364.628 237.756 364.405 238.033 364.092 238.213C363.785 238.386 363.362 238.473 362.822 238.473ZM362.832 237.823C363.198 237.823 363.478 237.763 363.672 237.643C363.865 237.516 363.998 237.319 364.072 237.053C364.152 236.779 364.192 236.396 364.192 235.903C364.192 235.383 364.152 234.983 364.072 234.703C363.992 234.423 363.855 234.223 363.662 234.103C363.468 233.983 363.192 233.923 362.832 233.923C362.472 233.923 362.192 233.983 361.992 234.103C361.798 234.223 361.658 234.423 361.572 234.703C361.492 234.983 361.452 235.383 361.452 235.903C361.452 236.389 361.488 236.769 361.562 237.043C361.642 237.316 361.778 237.516 361.972 237.643C362.172 237.763 362.458 237.823 362.832 237.823ZM366.185 233.373H366.925V233.723C367.225 233.556 367.498 233.439 367.745 233.373C367.998 233.306 368.262 233.273 368.535 233.273C368.962 233.273 369.292 233.353 369.525 233.513C369.758 233.673 369.922 233.929 370.015 234.283C370.115 234.629 370.165 235.113 370.165 235.733V238.373H369.425V235.753C369.425 235.279 369.395 234.916 369.335 234.663C369.282 234.409 369.182 234.226 369.035 234.113C368.888 233.999 368.675 233.943 368.395 233.943C368.168 233.943 367.935 233.973 367.695 234.033C367.462 234.086 367.272 234.149 367.125 234.223L366.935 234.313V238.373H366.185V233.373Z" fill="black"/>
<rect x="117.385" y="92.2283" width="4" height="22" fill="#C4C4C4"/>
<circle cx="119.885" cy="62.7283" r="28" stroke="#C4C4C4" stroke-width="3"/>
<g filter="url(#filter0_d)">
<circle cx="121.385" cy="233.228" r="11" fill="#F0C5C5"/>
</g>
<rect opacity="0.5" x="60.3848" y="125.663" width="122" height="87.799" rx="19.5" fill="#C79D9D" stroke="#F0C5C5" stroke-width="3"/>
<line x1="224.008" y1="235.264" x2="120.957" y2="235.264" stroke="black"/>
<path d="M299.093 177.181C298.627 177.181 298.017 177.125 297.263 177.011L296.903 176.961L296.983 176.321C297.897 176.441 298.587 176.501 299.053 176.501C300.04 176.501 300.533 176.038 300.533 175.111C300.533 174.858 300.487 174.658 300.393 174.511C300.307 174.365 300.153 174.245 299.933 174.151C299.72 174.058 299.407 173.971 298.993 173.891C298.447 173.778 298.02 173.648 297.713 173.501C297.413 173.355 297.193 173.158 297.053 172.911C296.913 172.665 296.843 172.335 296.843 171.921C296.843 170.681 297.587 170.061 299.073 170.061C299.587 170.061 300.283 170.128 301.163 170.261L301.093 170.911C300.133 170.798 299.477 170.741 299.123 170.741C298.123 170.741 297.623 171.118 297.623 171.871C297.623 172.158 297.67 172.378 297.763 172.531C297.863 172.678 298.03 172.798 298.263 172.891C298.497 172.985 298.867 173.088 299.373 173.201C299.867 173.315 300.247 173.441 300.513 173.581C300.787 173.721 300.987 173.908 301.113 174.141C301.24 174.368 301.303 174.671 301.303 175.051C301.303 176.471 300.567 177.181 299.093 177.181ZM304.303 177.191C303.803 177.191 303.407 177.105 303.113 176.931C302.82 176.751 302.61 176.475 302.483 176.101C302.357 175.721 302.293 175.218 302.293 174.591C302.293 173.798 302.427 173.165 302.693 172.691C302.96 172.218 303.477 171.981 304.243 171.981C304.443 171.981 304.65 171.991 304.863 172.011C305.077 172.031 305.367 172.075 305.733 172.141L305.703 172.751C305.177 172.691 304.773 172.661 304.493 172.661C304.113 172.661 303.82 172.721 303.613 172.841C303.413 172.955 303.27 173.151 303.183 173.431C303.103 173.705 303.063 174.098 303.063 174.611C303.063 175.098 303.103 175.478 303.183 175.751C303.263 176.018 303.407 176.215 303.613 176.341C303.827 176.461 304.133 176.521 304.533 176.521L305.713 176.431L305.743 177.051C305.103 177.145 304.623 177.191 304.303 177.191ZM306.859 172.091H307.599V172.771C308.172 172.378 308.782 172.115 309.429 171.981V172.741C309.169 172.795 308.885 172.878 308.579 172.991C308.279 173.098 308.039 173.198 307.859 173.291L307.609 173.421V177.091H306.859V172.091ZM312.088 177.191C311.328 177.191 310.788 176.995 310.468 176.601C310.155 176.201 309.998 175.575 309.998 174.721C309.998 173.795 310.168 173.108 310.508 172.661C310.848 172.215 311.381 171.991 312.108 171.991C312.775 171.991 313.271 172.185 313.598 172.571C313.931 172.951 314.098 173.538 314.098 174.331L314.058 174.901H310.758C310.758 175.315 310.801 175.638 310.888 175.871C310.981 176.105 311.135 176.275 311.348 176.381C311.568 176.481 311.871 176.531 312.258 176.531C312.451 176.531 312.675 176.528 312.928 176.521C313.181 176.508 313.411 176.491 313.618 176.471L313.908 176.441L313.928 177.031C313.188 177.138 312.575 177.191 312.088 177.191ZM313.348 174.301C313.348 173.695 313.251 173.265 313.058 173.011C312.865 172.751 312.548 172.621 312.108 172.621C311.648 172.621 311.308 172.758 311.088 173.031C310.868 173.298 310.755 173.721 310.748 174.301H313.348ZM317.137 177.191C316.377 177.191 315.837 176.995 315.517 176.601C315.204 176.201 315.047 175.575 315.047 174.721C315.047 173.795 315.217 173.108 315.557 172.661C315.897 172.215 316.43 171.991 317.157 171.991C317.824 171.991 318.32 172.185 318.647 172.571C318.98 172.951 319.147 173.538 319.147 174.331L319.107 174.901H315.807C315.807 175.315 315.85 175.638 315.937 175.871C316.03 176.105 316.184 176.275 316.397 176.381C316.617 176.481 316.92 176.531 317.307 176.531C317.5 176.531 317.724 176.528 317.977 176.521C318.23 176.508 318.46 176.491 318.667 176.471L318.957 176.441L318.977 177.031C318.237 177.138 317.624 177.191 317.137 177.191ZM318.397 174.301C318.397 173.695 318.3 173.265 318.107 173.011C317.914 172.751 317.597 172.621 317.157 172.621C316.697 172.621 316.357 172.758 316.137 173.031C315.917 173.298 315.804 173.721 315.797 174.301H318.397ZM320.316 172.091H321.056V172.441C321.356 172.275 321.629 172.158 321.876 172.091C322.129 172.025 322.392 171.991 322.666 171.991C323.092 171.991 323.422 172.071 323.656 172.231C323.889 172.391 324.052 172.648 324.146 173.001C324.246 173.348 324.296 173.831 324.296 174.451V177.091H323.556V174.471C323.556 173.998 323.526 173.635 323.466 173.381C323.412 173.128 323.312 172.945 323.166 172.831C323.019 172.718 322.806 172.661 322.526 172.661C322.299 172.661 322.066 172.691 321.826 172.751C321.592 172.805 321.402 172.868 321.256 172.941L321.066 173.031V177.091H320.316V172.091ZM326.517 178.341C325.823 176.775 325.477 175.348 325.477 174.061C325.477 172.768 325.823 171.278 326.517 169.591H327.237C326.99 170.251 326.77 171.025 326.577 171.911C326.383 172.798 326.287 173.541 326.287 174.141C326.287 174.695 326.37 175.338 326.537 176.071C326.71 176.798 326.943 177.555 327.237 178.341H326.517ZM329.254 175.081C329.167 174.908 329.124 174.705 329.124 174.471C329.124 174.258 329.194 174.055 329.334 173.861C329.48 173.668 329.734 173.415 330.094 173.101C330.34 172.888 330.52 172.718 330.634 172.591C330.747 172.458 330.827 172.325 330.874 172.191C330.92 172.051 330.944 171.878 330.944 171.671C330.944 171.358 330.837 171.128 330.624 170.981C330.41 170.828 330.074 170.751 329.614 170.751C329.327 170.751 328.81 170.828 328.064 170.981L328.014 170.371C328.68 170.171 329.237 170.071 329.684 170.071C330.377 170.071 330.887 170.198 331.214 170.451C331.54 170.705 331.704 171.111 331.704 171.671C331.704 171.971 331.68 172.211 331.634 172.391C331.587 172.571 331.5 172.738 331.374 172.891C331.254 173.045 331.07 173.225 330.824 173.431C330.457 173.738 330.207 173.978 330.074 174.151C329.947 174.325 329.884 174.518 329.884 174.731V175.081H329.254ZM329.144 175.961H329.964V177.081H329.144V175.961ZM332.446 178.341C332.766 177.468 333.003 176.695 333.156 176.021C333.31 175.348 333.386 174.725 333.386 174.151C333.386 173.471 333.293 172.715 333.106 171.881C332.92 171.041 332.7 170.278 332.446 169.591H333.166C333.86 171.285 334.206 172.775 334.206 174.061C334.206 175.348 333.86 176.775 333.166 178.341H332.446Z" fill="black"/>
<path d="M284.492 173.869L162.515 173.869" stroke="black"/>
<path d="M251.357 98.8736V101.784L254.167 98.8736H255.257L252.507 101.704L255.427 105.164H254.407L251.977 102.254L251.357 102.894V105.164H250.557V98.8736H251.357ZM258.301 104.634C258.961 104.634 259.337 104.344 259.431 103.764H260.241C260.167 104.244 259.954 104.617 259.601 104.884C259.254 105.144 258.821 105.274 258.301 105.274C257.661 105.274 257.141 105.047 256.741 104.594C256.341 104.134 256.141 103.524 256.141 102.764C256.141 102.004 256.341 101.397 256.741 100.944C257.147 100.49 257.684 100.264 258.351 100.264C259.024 100.264 259.524 100.524 259.851 101.044C260.184 101.564 260.301 102.197 260.201 102.944H256.931C256.931 103.437 257.051 103.844 257.291 104.164C257.531 104.477 257.867 104.634 258.301 104.634ZM258.881 101.014C258.727 100.934 258.541 100.894 258.321 100.894C257.914 100.894 257.591 101.034 257.351 101.314C257.117 101.587 256.981 101.93 256.941 102.344H259.491C259.491 101.677 259.287 101.234 258.881 101.014ZM260.837 106.554C261.164 106.807 261.507 106.934 261.867 106.934C262.134 106.934 262.364 106.8 262.557 106.534C262.697 106.34 262.824 106.047 262.937 105.654L263.077 105.164L261.117 100.384H261.997L263.447 104.194L264.577 100.384H265.377L263.587 106.114C263.434 106.6 263.23 106.974 262.977 107.234C262.73 107.494 262.414 107.624 262.027 107.624C261.647 107.624 261.25 107.507 260.837 107.274V106.554ZM268.591 101.054C267.838 101.054 267.448 101.647 267.421 102.834V105.164H266.631V100.374H267.421V101.294C267.661 100.627 268.084 100.294 268.691 100.294C268.884 100.294 269.068 100.324 269.241 100.384L269.201 101.154C269.001 101.087 268.798 101.054 268.591 101.054ZM270.499 100.374H271.289V105.164H270.499V100.374ZM270.889 99.2536C270.729 99.2536 270.603 99.2102 270.509 99.1236C270.423 99.0302 270.379 98.9102 270.379 98.7636C270.379 98.6102 270.423 98.4902 270.509 98.4036C270.603 98.3102 270.729 98.2636 270.889 98.2636C271.049 98.2636 271.176 98.3102 271.269 98.4036C271.369 98.4902 271.419 98.6102 271.419 98.7636C271.419 98.9102 271.369 99.0302 271.269 99.1236C271.176 99.2102 271.049 99.2536 270.889 99.2536ZM274.198 101.304C274.511 100.61 275.048 100.264 275.808 100.264C276.374 100.264 276.814 100.45 277.128 100.824C277.448 101.197 277.608 101.707 277.608 102.354V105.164H276.828V102.354C276.828 101.894 276.718 101.547 276.498 101.314C276.284 101.08 275.978 100.964 275.578 100.964C275.178 100.964 274.854 101.127 274.608 101.454C274.361 101.78 274.231 102.234 274.218 102.814V105.164H273.428V100.384H274.108L274.198 101.304ZM279.663 105.014C279.263 104.82 279.063 104.524 279.063 104.124C279.063 103.917 279.14 103.737 279.293 103.584C279.453 103.424 279.65 103.317 279.883 103.264C279.523 102.944 279.343 102.524 279.343 102.004C279.343 101.484 279.526 101.064 279.893 100.744C280.266 100.424 280.706 100.264 281.213 100.264C281.72 100.264 282.15 100.384 282.503 100.624C282.55 100.27 282.69 99.9869 282.923 99.7736C283.163 99.5602 283.476 99.4536 283.863 99.4536L283.793 100.234C283.206 100.234 282.9 100.48 282.873 100.974C283.106 101.26 283.223 101.604 283.223 102.004C283.223 102.517 283.036 102.94 282.663 103.274C282.296 103.6 281.836 103.764 281.283 103.764C280.903 103.764 280.566 103.687 280.273 103.534C280.14 103.56 280.02 103.624 279.913 103.724C279.806 103.817 279.753 103.947 279.753 104.114C279.753 104.467 280.046 104.644 280.633 104.644H282.493C282.94 104.644 283.293 104.74 283.553 104.934C283.813 105.12 283.943 105.384 283.943 105.724C283.943 106.23 283.686 106.674 283.173 107.054C282.666 107.434 282.023 107.624 281.243 107.624C280.463 107.624 279.85 107.477 279.403 107.184C278.956 106.897 278.733 106.534 278.733 106.094C278.733 105.807 278.816 105.574 278.983 105.394C279.156 105.214 279.383 105.087 279.663 105.014ZM279.513 106.064C279.513 106.317 279.65 106.534 279.923 106.714C280.203 106.9 280.623 106.994 281.183 106.994C281.75 106.994 282.22 106.87 282.593 106.624C282.973 106.384 283.163 106.1 283.163 105.774C283.163 105.62 283.106 105.487 282.993 105.374C282.886 105.267 282.72 105.214 282.493 105.214H280.563C280.223 105.227 279.963 105.307 279.783 105.454C279.603 105.607 279.513 105.81 279.513 106.064ZM282.453 102.004C282.453 101.657 282.35 101.377 282.143 101.164C281.936 100.944 281.65 100.834 281.283 100.834C280.923 100.834 280.64 100.944 280.433 101.164C280.226 101.377 280.123 101.657 280.123 102.004C280.123 102.35 280.226 102.637 280.433 102.864C280.646 103.084 280.933 103.194 281.293 103.194C281.653 103.194 281.936 103.08 282.143 102.854C282.35 102.627 282.453 102.344 282.453 102.004Z" fill="black"/>
<line x1="229.93" y1="102.029" x2="126.879" y2="102.029" stroke="black"/>
<path d="M304.811 102.31L445.815 102.31" stroke="black"/>
<circle cx="232.441" cy="102.169" r="2.99431" transform="rotate(-180 232.441 102.169)" fill="black"/>
<circle cx="302.297" cy="102.169" r="2.99431" fill="black"/>
<circle cx="287.101" cy="174.021" r="2.99431" transform="rotate(-180 287.101 174.021)" fill="black"/>
<circle cx="226.342" cy="235.289" r="2.99431" transform="rotate(180 226.342 235.289)" fill="black"/>
<rect x="431.615" y="114.228" width="51" height="141" rx="17" fill="#FCE3E3"/>
<path d="M440.154 278.077H442.954V278.767H439.364V272.477H440.154V278.077ZM445.692 278.237C446.352 278.237 446.729 277.947 446.822 277.367H447.632C447.559 277.847 447.346 278.22 446.992 278.487C446.646 278.747 446.212 278.877 445.692 278.877C445.052 278.877 444.532 278.65 444.132 278.197C443.732 277.737 443.532 277.127 443.532 276.367C443.532 275.607 443.732 275 444.132 274.547C444.539 274.094 445.076 273.867 445.742 273.867C446.416 273.867 446.916 274.127 447.242 274.647C447.576 275.167 447.692 275.8 447.592 276.547H444.322C444.322 277.04 444.442 277.447 444.682 277.767C444.922 278.08 445.259 278.237 445.692 278.237ZM446.272 274.617C446.119 274.537 445.932 274.497 445.712 274.497C445.306 274.497 444.982 274.637 444.742 274.917C444.509 275.19 444.372 275.534 444.332 275.947H446.882C446.882 275.28 446.679 274.837 446.272 274.617ZM451.509 272.627C451.289 272.54 451.115 272.497 450.989 272.497C450.755 272.497 450.572 272.554 450.439 272.667C450.305 272.78 450.239 272.98 450.239 273.267V273.987H451.229V274.527H450.239V278.767H449.459V274.527H448.669V273.987H449.459V273.257C449.459 272.784 449.589 272.437 449.849 272.217C450.109 271.99 450.409 271.877 450.749 271.877C451.089 271.877 451.389 271.92 451.649 272.007L451.509 272.627ZM455.116 278.627C454.543 278.894 454.02 278.95 453.546 278.797C453.206 278.69 452.966 278.467 452.826 278.127C452.753 277.96 452.716 277.76 452.716 277.527V274.587H451.946V273.987H452.716V272.657H453.496V273.987H454.996V274.587H453.496V277.517C453.496 278.004 453.723 278.247 454.176 278.247C454.423 278.247 454.7 278.187 455.006 278.067L455.116 278.627ZM462.109 274.007C461.996 273.394 461.546 273.087 460.759 273.087C460.339 273.087 460.016 273.18 459.789 273.367C459.562 273.547 459.449 273.767 459.449 274.027C459.449 274.28 459.519 274.474 459.659 274.607C459.799 274.74 460.026 274.857 460.339 274.957L461.649 275.407C462.096 275.56 462.449 275.77 462.709 276.037C462.976 276.304 463.109 276.68 463.109 277.167C463.109 277.647 462.902 278.054 462.489 278.387C462.076 278.714 461.522 278.877 460.829 278.877C460.136 278.877 459.566 278.704 459.119 278.357C458.679 278.004 458.452 277.51 458.439 276.877H459.209C459.209 277.29 459.352 277.607 459.639 277.827C459.932 278.047 460.306 278.157 460.759 278.157C461.219 278.157 461.582 278.057 461.849 277.857C462.116 277.65 462.249 277.41 462.249 277.137C462.249 276.857 462.166 276.637 461.999 276.477C461.839 276.317 461.599 276.184 461.279 276.077L460.169 275.667C459.649 275.494 459.256 275.287 458.989 275.047C458.722 274.807 458.589 274.457 458.589 273.997C458.589 273.53 458.776 273.144 459.149 272.837C459.522 272.524 460.046 272.367 460.719 272.367C461.392 272.367 461.906 272.517 462.259 272.817C462.619 273.11 462.826 273.507 462.879 274.007H462.109ZM464.864 273.977H465.654V278.767H464.864V273.977ZM465.254 272.857C465.094 272.857 464.967 272.814 464.874 272.727C464.787 272.634 464.744 272.514 464.744 272.367C464.744 272.214 464.787 272.094 464.874 272.007C464.967 271.914 465.094 271.867 465.254 271.867C465.414 271.867 465.54 271.914 465.634 272.007C465.734 272.094 465.784 272.214 465.784 272.367C465.784 272.514 465.734 272.634 465.634 272.727C465.54 272.814 465.414 272.857 465.254 272.857ZM470.932 274.697V271.957H471.712V278.767H471.072L470.972 277.967C470.819 278.267 470.615 278.494 470.362 278.647C470.109 278.8 469.832 278.877 469.532 278.877C468.925 278.877 468.415 278.644 468.002 278.177C467.595 277.71 467.392 277.104 467.392 276.357C467.392 275.604 467.592 275 467.992 274.547C468.399 274.094 468.909 273.867 469.522 273.867C470.142 273.867 470.612 274.144 470.932 274.697ZM469.572 274.567C469.185 274.567 468.859 274.73 468.592 275.057C468.332 275.384 468.202 275.82 468.202 276.367C468.202 276.914 468.335 277.354 468.602 277.687C468.869 278.014 469.189 278.177 469.562 278.177C469.935 278.177 470.252 278.054 470.512 277.807C470.779 277.554 470.919 277.217 470.932 276.797V276.017C470.932 275.57 470.802 275.217 470.542 274.957C470.282 274.697 469.959 274.567 469.572 274.567ZM475.389 278.237C476.049 278.237 476.426 277.947 476.519 277.367H477.329C477.256 277.847 477.043 278.22 476.689 278.487C476.343 278.747 475.909 278.877 475.389 278.877C474.749 278.877 474.229 278.65 473.829 278.197C473.429 277.737 473.229 277.127 473.229 276.367C473.229 275.607 473.429 275 473.829 274.547C474.236 274.094 474.773 273.867 475.439 273.867C476.113 273.867 476.613 274.127 476.939 274.647C477.273 275.167 477.389 275.8 477.289 276.547H474.019C474.019 277.04 474.139 277.447 474.379 277.767C474.619 278.08 474.956 278.237 475.389 278.237ZM475.969 274.617C475.816 274.537 475.629 274.497 475.409 274.497C475.003 274.497 474.679 274.637 474.439 274.917C474.206 275.19 474.069 275.534 474.029 275.947H476.579C476.579 275.28 476.376 274.837 475.969 274.617Z" fill="black"/>
<rect x="482.615" y="135.228" width="5" height="77" rx="2.5" fill="#E39898"/>
<rect x="455.615" y="92.2283" width="4" height="22" fill="#C4C4C4"/>
<circle cx="458.115" cy="62.7283" r="28" stroke="#C4C4C4" stroke-width="3"/>
<defs>
<filter id="filter0_d" x="110.385" y="222.228" width="23" height="23" filterUnits="userSpaceOnUse" color-interpolation-filters="sRGB">
<feFlood flood-opacity="0" result="BackgroundImageFix"/>
<feColorMatrix in="SourceAlpha" type="matrix" values="0 0 0 0 0 0 0 0 0 0 0 0 0 0 0 0 0 0 127 0"/>
<feOffset dx="1" dy="1"/>
<feColorMatrix type="matrix" values="0 0 0 0 0 0 0 0 0 0 0 0 0 0 0 0 0 0 0.25 0"/>
<feBlend mode="normal" in2="BackgroundImageFix" result="effect1_dropShadow"/>
<feBlend mode="normal" in="SourceGraphic" in2="effect1_dropShadow" result="shape"/>
</filter>
</defs>
</svg>
